<?xml version="1.0" encoding="UTF-8" standalone="no"?>
<!-- Created with Inkscape (http://www.inkscape.org/) -->

<svg
   xmlns:dc="http://purl.org/dc/elements/1.1/"
   xmlns:cc="http://creativecommons.org/ns#"
   xmlns:rdf="http://www.w3.org/1999/02/22-rdf-syntax-ns#"
   xmlns:svg="http://www.w3.org/2000/svg"
   xmlns="http://www.w3.org/2000/svg"
   xmlns:sodipodi="http://sodipodi.sourceforge.net/DTD/sodipodi-0.dtd"
   xmlns:inkscape="http://www.inkscape.org/namespaces/inkscape"
   width="98.603523mm"
   height="89.965416mm"
   viewBox="0 0 349.38256 318.77509"
   id="svg4163"
   version="1.1"
   inkscape:version="0.91 r13725"
   sodipodi:docname="rent.svg">
  <defs
     id="defs4165" />
  <sodipodi:namedview
     id="base"
     pagecolor="#ffffff"
     bordercolor="#666666"
     borderopacity="1.0"
     inkscape:pageopacity="0.0"
     inkscape:pageshadow="2"
     inkscape:zoom="0.35"
     inkscape:cx="-356.023"
     inkscape:cy="350.81609"
     inkscape:document-units="px"
     inkscape:current-layer="layer1"
     showgrid="false"
     fit-margin-top="0"
     fit-margin-left="0"
     fit-margin-right="0"
     fit-margin-bottom="0"
     inkscape:window-width="1855"
     inkscape:window-height="1056"
     inkscape:window-x="65"
     inkscape:window-y="24"
     inkscape:window-maximized="1" />
  <metadata
     id="metadata4168">
    <rdf:RDF>
      <cc:Work
         rdf:about="">
        <dc:format>image/svg+xml</dc:format>
        <dc:type
           rdf:resource="http://purl.org/dc/dcmitype/StillImage" />
        <dc:title></dc:title>
      </cc:Work>
    </rdf:RDF>
  </metadata>
  <g
     inkscape:label="Layer 1"
     inkscape:groupmode="layer"
     id="layer1"
     transform="translate(-305.30871,-564.40324)">
    <path
       d="m 511.18462,768.26515 c -2.78625,6.08 0,22.28875 0,22.28875 l -64.26875,18.8675 c 0,0 -0.56875,0.95 -1.4225,-1.425 -0.0438,-0.1175 -0.0813,-0.23875 -0.1125,-0.35875 -0.61375,-2.31 0.58625,-5.055 0.58625,-5.055 l 4.55875,1.33125 c 5.12875,0.475 4.4325,-4.2425 4.4325,-4.2425 0.25375,-3.2925 -6.07875,-10.63625 -6.07875,-10.63625 1.26625,-8.35875 -0.50625,-13.425 -0.50625,-13.425 -3.03875,-2.025 -4.55875,-11.64875 -4.55875,-11.64875 5.5725,-4.81375 18.4875,-2.5325 18.4875,-2.5325 6.58625,3.0375 24.5675,3.0375 24.5675,3.0375 9.87875,-0.50625 26.595,-8.86375 26.595,-8.86375 1.0125,4.05375 -2.28,12.6625 -2.28,12.6625 z m 142.97,8.485 c 0,0 -7.40875,-23.36375 -55.65625,-10.4475 l -35.90125,10.6375 c 0,0 -3.54625,-13.73875 -1.51875,-22.09625 0,0 0.50625,-11.14375 -3.8,-14.4375 0,0 1.52,-17.98125 -1.51875,-19.75375 0,0 6.455,-8.9925 3.0875,-15.97875 -0.16125,-0.335 -0.34625,-0.66625 -0.555,-0.99125 -4.55875,-7.0925 0.2525,-29.88625 -27.60625,-24.31375 l -5.31875,1.01375 c 0,0 -3.0375,-11.14375 -9.625,-15.70375 0,0 -0.2525,-16.71375 -4.30375,-20.76625 0,0 1.0125,-5.5725 0.2525,-7.59875 0,0 19.75375,-11.65125 34.95125,-13.93 0,0 3.79875,1.0125 6.33125,-1.26625 0,0 28.1125,-6.3325 30.89875,-10.13125 0,0 25.83375,-2.02625 33.9375,-7.59875 l 15.1975,-2.2775 c 0,0 8.10375,-2.02625 8.8625,-6.33375 0,0 1.01375,-3.545 -1.265,-3.545 0,0 -6.83875,-16.46125 -20.26125,-11.65 0,0 -7.09125,3.54625 -7.8525,5.825 l -0.2525,1.7725 -9.11875,-1.7725 c 0,0 -4.0525,-1.26625 -5.06375,0.50625 0,0 -1.77375,-2.5325 -6.3325,1.26625 0,0 -15.19625,-0.76 -21.78125,2.02625 l -3.03875,2.28 c 0,0 -2.53375,-4.0525 -7.345,-2.28 0,0 -15.70375,-2.5325 -17.98125,0.25375 0,0 -39.76375,7.09 -42.04375,12.91625 l 0,3.2925 -7.09125,0.50625 -1.26625,2.53375 -3.79875,-0.50625 -1.7725,-3.8 -3.79875,0 0.2525,-1.64625 c 0,0 -4.8125,-23.3 -25.07375,-28.99875 0,0 -2.65875,-0.63375 -4.4325,-3.42 0,0 -3.6725,-9.37125 -12.41,-4.55875 0,0 -8.485,3.6725 -3.41875,12.79125 0,0 2.9125,5.57125 -2.15375,10.3825 0,0 -8.105,10.89125 -1.14,33.93875 0,0 -16.71625,19.50125 -21.27375,35.20375 0,0 -7.85126,17.47625 -4.0525,25.57875 0,0 -7.09001,14.43625 -4.55876,25.3275 0,0 -13.92875,0.50625 -15.955,17.47625 0,0 -4.56,30.8975 3.0375,82.565 0,0 -21.27375,5.82625 -19.2475,20.00875 l 2.02625,4.56 -53.694,15.70125 c 0,0 -17.47412,3.04 -13.92825,10.38375 l 25.5785,21.0225 c 0,0 13.67625,4.55875 26.59375,1.26625 l 100.29626,-30.39375 c 0,0 94.4675,-23.5525 170.0675,-35.71 0,0 30.77375,-4.55875 25.835,-39.13"
       style="fill:#00162e;fill-opacity:1;fill-rule:nonzero;stroke:none"
       id="path16"
       inkscape:connector-curvature="0" />
    <path
       inkscape:connector-curvature="0"
       id="path4717"
       style="fill:#00162e;fill-opacity:1;fill-rule:nonzero;stroke:none"
       d="m 511.18462,768.26515 c -2.78625,6.08 0,22.28875 0,22.28875 l -64.26875,18.8675 c 0,0 -0.56875,0.95 -1.4225,-1.425 -0.0438,-0.1175 -0.0813,-0.23875 -0.1125,-0.35875 -0.61375,-2.31 0.58625,-5.055 0.58625,-5.055 l 4.55875,1.33125 c 5.12875,0.475 4.4325,-4.2425 4.4325,-4.2425 0.25375,-3.2925 -6.07875,-10.63625 -6.07875,-10.63625 1.26625,-8.35875 -0.50625,-13.425 -0.50625,-13.425 -3.03875,-2.025 -4.55875,-11.64875 -4.55875,-11.64875 5.5725,-4.81375 18.4875,-2.5325 18.4875,-2.5325 6.58625,3.0375 24.5675,3.0375 24.5675,3.0375 9.87875,-0.50625 26.595,-8.86375 26.595,-8.86375 1.0125,4.05375 -2.28,12.6625 -2.28,12.6625 z m 142.97,8.485 c 0,0 -7.40875,-23.36375 -55.65625,-10.4475 l -35.90125,10.6375 c 0,0 -3.54625,-13.73875 -1.51875,-22.09625 0,0 0.50625,-11.14375 -3.8,-14.4375 0,0 1.52,-17.98125 -1.51875,-19.75375 0,0 6.455,-8.9925 3.0875,-15.97875 -0.16125,-0.335 -0.34625,-0.66625 -0.555,-0.99125 -4.55875,-7.0925 0.2525,-29.88625 -27.60625,-24.31375 l -5.31875,1.01375 c 0,0 -3.0375,-11.14375 -9.625,-15.70375 0,0 -0.2525,-16.71375 -4.30375,-20.76625 0,0 1.0125,-5.5725 0.2525,-7.59875 0,0 19.75375,-11.65125 34.95125,-13.93 0,0 3.79875,1.0125 6.33125,-1.26625 0,0 28.1125,-6.3325 30.89875,-10.13125 0,0 25.83375,-2.02625 33.9375,-7.59875 l 15.1975,-2.2775 c 0,0 8.10375,-2.02625 8.8625,-6.33375 0,0 1.01375,-3.545 -1.265,-3.545 0,0 -6.83875,-16.46125 -20.26125,-11.65 0,0 -7.09125,3.54625 -7.8525,5.825 l -0.2525,1.7725 -9.11875,-1.7725 c 0,0 -4.0525,-1.26625 -5.06375,0.50625 0,0 -1.77375,-2.5325 -6.3325,1.26625 0,0 -15.19625,-0.76 -21.78125,2.02625 l -3.03875,2.28 c 0,0 -2.53375,-4.0525 -7.345,-2.28 0,0 -15.70375,-2.5325 -17.98125,0.25375 0,0 -39.76375,7.09 -42.04375,12.91625 l 0,3.2925 -7.09125,0.50625 -1.26625,2.53375 -3.79875,-0.50625 -1.7725,-3.8 -3.79875,0 0.2525,-1.64625 c 0,0 -4.8125,-23.3 -25.07375,-28.99875 0,0 -2.65875,-0.63375 -4.4325,-3.42 0,0 -3.6725,-9.37125 -12.41,-4.55875 0,0 -8.485,3.6725 -3.41875,12.79125 0,0 2.9125,5.57125 -2.15375,10.3825 0,0 -8.105,10.89125 -1.14,33.93875 0,0 -16.71625,19.50125 -21.27375,35.20375 0,0 -7.85126,17.47625 -4.0525,25.57875 0,0 -7.09001,14.43625 -4.55876,25.3275 0,0 -13.92875,0.50625 -15.955,17.47625 0,0 -4.56,30.8975 3.0375,82.565 0,0 -21.27375,5.82625 -19.2475,20.00875 l 2.02625,4.56 -53.694,15.70125 c 0,0 -17.47412,3.04 -13.92825,10.38375 l 25.5785,21.0225 c 0,0 13.67625,4.55875 26.59375,1.26625 l 100.29626,-30.39375 c 0,0 94.4675,-23.5525 170.0675,-35.71 0,0 30.77375,-4.55875 25.835,-39.13" />
  </g>
</svg>
